<svg id="visual" viewBox="0 0 900 600" width="900" height="600" xmlns="http://www.w3.org/2000/svg" xmlns:xlink="http://www.w3.org/1999/xlink" version="1.1"><rect x="0" y="0" width="900" height="600" fill="#4d82bc"></rect><g transform="translate(903.1762361993337 -23.87577504493484)"><path d="M298.3 -325.3C365.6 -299 384.7 -185.1 413.7 -66.2C442.7 52.7 481.6 176.6 441.3 262.7C401 348.8 281.6 397.1 185.2 373.5C88.8 349.8 15.6 254.2 -108.9 236.2C-233.3 218.2 -409 277.9 -453 242C-497.1 206.1 -409.5 74.6 -347.5 -23.7C-285.4 -122.1 -248.8 -187.5 -195.1 -216.2C-141.4 -244.9 -70.7 -236.9 22.4 -263.6C115.5 -290.3 231 -351.6 298.3 -325.3" fill="#84b6f4"></path></g></svg>