<svg xmlns="http://www.w3.org/2000/svg" viewBox="0 0 1440 320"><g
  
    transform="rotate(-10 50 100)
          ">
    
  </g><path fill="#e5f4fe" fill-opacity="1" d="M0,96L16,122.7C32,149,64,203,96,234.7C128,267,160,277,192,234.7C224,192,256,96,288,64C320,32,352,64,384,90.7C416,117,448,139,480,144C512,149,544,139,576,133.3C608,128,640,128,672,122.7C704,117,736,107,768,90.7C800,75,832,53,864,42.7C896,32,928,32,960,53.3C992,75,1024,117,1056,144C1088,171,1120,181,1152,181.3C1184,181,1216,171,1248,186.7C1280,203,1312,245,1344,261.3C1376,277,1408,267,1424,261.3L1440,256L1440,320L1424,320C1408,320,1376,320,1344,320C1312,320,1280,320,1248,320C1216,320,1184,320,1152,320C1120,320,1088,320,1056,320C1024,320,992,320,960,320C928,320,896,320,864,320C832,320,800,320,768,320C736,320,704,320,672,320C640,320,608,320,576,320C544,320,512,320,480,320C448,320,416,320,384,320C352,320,320,320,288,320C256,320,224,320,192,320C160,320,128,320,96,320C64,320,32,320,16,320L0,320Z"></path></svg>