<svg id="visual" viewBox="0 0 500 500" width="500" height="500" xmlns="http://www.w3.org/2000/svg" xmlns:xlink="http://www.w3.org/1999/xlink" version="1.1"><rect x="0" y="0" width="500" height="500" fill="#c4dafa"></rect><defs><linearGradient id="grad1_0" x1="0%" y1="0%" x2="100%" y2="100%"><stop offset="30%" stop-color="#c4dafa" stop-opacity="1"></stop><stop offset="70%" stop-color="#c4dafa" stop-opacity="1"></stop></linearGradient></defs><defs><linearGradient id="grad2_0" x1="0%" y1="0%" x2="100%" y2="100%"><stop offset="30%" stop-color="#c4dafa" stop-opacity="1"></stop><stop offset="70%" stop-color="#c4dafa" stop-opacity="1"></stop></linearGradient></defs><g transform="translate(500, 0)"><path d="M0 318.2C-31.8 290.4 -63.6 262.5 -104.1 251.3C-144.6 240 -193.8 245.4 -225 225C-256.2 204.6 -269.3 158.5 -281.8 116.7C-294.3 74.9 -306.3 37.5 -318.2 0L0 0Z" fill="#84b6f4"></path></g><g transform="translate(0, 500)"><path d="M0 -318.2C34.4 -287.8 68.8 -257.4 97.6 -235.6C126.3 -213.8 149.4 -200.5 185.3 -185.3C221.1 -170.1 269.7 -153 294 -121.8C318.3 -90.6 318.2 -45.3 318.2 0L0 0Z" fill="#84b6f4"></path></g></svg>