<svg id="visual" viewBox="0 0 500 500" width="500" height="500" xmlns="http://www.w3.org/2000/svg" xmlns:xlink="http://www.w3.org/1999/xlink" version="1.1"><rect x="0" y="0" width="500" height="500" fill="#A8A89E"></rect><path d="M436 500L436.2 488.2C436.3 476.3 436.7 452.7 431 428.8C425.3 405 413.7 381 405.5 357.2C397.3 333.3 392.7 309.7 378.5 285.8C364.3 262 340.7 238 346.3 214.2C352 190.3 387 166.7 390.2 142.8C393.3 119 364.7 95 365.7 71.2C366.7 47.3 397.3 23.7 412.7 11.8L428 0L500 0L500 11.8C500 23.7 500 47.3 500 71.2C500 95 500 119 500 142.8C500 166.7 500 190.3 500 214.2C500 238 500 262 500 285.8C500 309.7 500 333.3 500 357.2C500 381 500 405 500 428.8C500 452.7 500 476.3 500 488.2L500 500Z" fill="#CCCCCC" stroke-linecap="round" stroke-linejoin="miter"></path></svg>